<svg width="512" height="512" viewBox="0 0 512 512" fill="none" xmlns="http://www.w3.org/2000/svg">
<g clip-path="url(#clip0_41_16)">
<path d="M256 496.222C361.511 496.222 447.044 410.683 447.044 305.165C447.044 243.342 403.667 180.242 366.75 143.667C335.702 113.112 306.233 73.0828 285.51 42.4102C274.633 26.311 269.194 18.2614 263.615 15.964C258.391 13.8124 253.609 13.8124 248.384 15.9639C242.805 18.2612 237.367 26.3108 226.489 42.4098C205.766 73.0815 176.297 113.11 145.25 143.667C108.333 180 64.9559 243.342 64.9559 305.165C64.9559 410.683 150.489 496.222 256 496.222Z" fill="#FFC400"/>
<path d="M256 496.222C361.511 496.222 447.044 410.683 447.044 305.165L446.951 310.009C446.951 355.037 361.459 391.54 256 391.54C150.541 391.54 65.0488 355.037 65.0488 310.009L64.9559 305.165C64.9559 410.683 150.489 496.222 256 496.222Z" fill="#FFB54D"/>
<mask id="mask0_41_16" style="mask-type:alpha" maskUnits="userSpaceOnUse" x="64" y="14" width="384" height="483">
<path d="M256 496.222C361.511 496.222 447.044 410.683 447.044 305.165C447.044 243.342 403.667 180.242 366.75 143.667C335.702 113.112 306.233 73.0828 285.51 42.4102C274.633 26.311 269.194 18.2614 263.615 15.964C258.391 13.8124 253.609 13.8124 248.384 15.9639C242.805 18.2612 237.367 26.3108 226.489 42.4098C205.766 73.0815 176.297 113.11 145.25 143.667C108.333 180 64.9559 243.342 64.9559 305.165C64.9559 410.683 150.489 496.222 256 496.222Z" fill="#FF7A00"/>
</mask>
<g mask="url(#mask0_41_16)">
<ellipse cx="174.005" cy="379.688" rx="376.47" ry="444.591" transform="rotate(-42.1823 174.005 379.688)" fill="url(#paint0_radial_41_16)" fill-opacity="0.4"/>
<path d="M255.945 171.762C246.122 171.841 239.119 168.284 233.55 161.887C222.088 148.721 204.151 137.455 180.805 145.88C157.46 154.305 138.227 150.714 150.121 126.145L172.28 65.2467L233.55 -5.11282H256.001C256.001 -5.11282 255.967 102.688 255.945 171.762ZM278.45 -5.11282L339.72 65.2467L361.879 126.145C373.773 150.714 354.54 154.305 331.195 145.88C307.849 137.455 289.912 148.721 278.45 161.887C272.881 168.284 265.768 171.682 255.945 171.762C255.967 102.688 256.001 -5.11282 256.001 -5.11282H278.45Z" fill="white" fill-opacity="0.5"/>
</g>
<ellipse cx="174.006" cy="379.688" rx="50.7386" ry="66.8893" transform="rotate(-41.8348 174.006 379.688)" fill="white"/>
</g>
<rect x="0.5" y="0.5" width="511" height="511" stroke="black"/>
<defs>
<radialGradient id="paint0_radial_41_16" cx="0" cy="0" r="1" gradientUnits="userSpaceOnUse" gradientTransform="translate(174.005 379.688) rotate(0.121443) scale(431.307 365.222)">
<stop offset="0.25" stop-color="#737373" stop-opacity="0"/>
<stop offset="0.629808" stop-color="#FF6A00"/>
</radialGradient>
<clipPath id="clip0_41_16">
<rect width="512" height="512" fill="white"/>
</clipPath>
</defs>
</svg>
